<?xml version="1.0" standalone="no"?>
<!DOCTYPE svg PUBLIC "-//W3C//DTD SVG 20010904//EN"
 "http://www.w3.org/TR/2001/REC-SVG-20010904/DTD/svg10.dtd">
<svg version="1.0" xmlns="http://www.w3.org/2000/svg"
 width="213.000000pt" height="201.000000pt" viewBox="0 0 213.000000 201.000000"
 preserveAspectRatio="xMidYMid meet">

<g transform="translate(0.000000,201.000000) scale(0.100000,-0.100000)"
fill="#000000" stroke="none">
<path d="M463 1995 c-185 -40 -339 -196 -378 -382 -21 -99 -21 -1107 0 -1206
40 -189 193 -342 382 -382 99 -21 1107 -21 1206 0 189 40 342 193 382 382 21
99 21 1107 0 1206 -40 189 -193 342 -382 382 -96 21 -1117 20 -1210 0z m416
-449 c8 -9 11 -48 9 -111 -2 -80 -6 -100 -20 -109 -13 -8 -23 -8 -35 0 -15 9
-19 29 -21 109 -3 101 4 125 38 125 10 0 23 -6 29 -14z m440 0 c8 -9 11 -48 9
-111 -2 -80 -6 -100 -20 -109 -13 -8 -23 -8 -35 0 -15 9 -19 29 -21 109 -3
101 4 125 38 125 10 0 23 -6 29 -14z m-529 -154 c0 -61 17 -85 60 -85 43 0 60
24 60 85 l0 48 160 0 160 0 0 -48 c0 -61 17 -85 60 -85 43 0 60 24 60 86 l0
49 86 -3 c82 -4 87 -5 115 -37 26 -29 29 -39 29 -102 l0 -70 -510 0 -510 0 0
69 c0 55 4 74 21 95 29 37 52 45 137 45 l72 1 0 -48z m790 -525 c0 -364 1
-361 -60 -392 -43 -22 -857 -22 -900 0 -61 31 -60 28 -60 392 l0 333 510 0
510 0 0 -333z"/>
<path d="M590 1060 l0 -100 110 0 110 0 0 100 0 100 -110 0 -110 0 0 -100z"/>
<path d="M840 1069 c0 -83 2 -90 18 -84 63 26 120 26 175 -2 l27 -14 0 96 0
95 -110 0 -110 0 0 -91z"/>
<path d="M1090 1060 l0 -100 110 0 110 0 0 100 0 100 -110 0 -110 0 0 -100z"/>
<path d="M1340 1060 l0 -100 105 0 105 0 0 100 0 100 -105 0 -105 0 0 -100z"/>
<path d="M895 975 c-39 -13 -38 -13 50 -13 84 0 88 1 60 13 -37 17 -59 17
-110 0z"/>
<path d="M590 830 l0 -100 90 0 90 0 -10 26 c-15 39 -12 84 10 132 l19 42 -99
0 -100 0 0 -100z"/>
<path d="M840 830 l0 -100 110 0 110 0 0 100 0 100 -110 0 -110 0 0 -100z"/>
<path d="M1110 926 c0 -2 7 -17 15 -32 17 -33 20 -101 5 -138 l-10 -26 95 0
95 0 0 100 0 100 -100 0 c-55 0 -100 -2 -100 -4z"/>
<path d="M1340 830 l0 -100 105 0 105 0 0 100 0 100 -105 0 -105 0 0 -100z"/>
<path d="M792 867 c-10 -39 -10 -56 0 -90 l13 -42 3 42 c2 23 2 64 0 90 l-3
48 -13 -48z"/>
<path d="M1091 815 c0 -48 3 -64 9 -50 5 11 9 34 9 50 0 17 -4 39 -9 50 -6 14
-9 -2 -9 -50z"/>
<path d="M590 626 c0 -65 3 -79 24 -103 23 -26 31 -28 110 -32 l86 -3 0 90 c0
50 -3 97 -6 106 -5 13 -25 16 -110 16 l-104 0 0 -74z"/>
<path d="M840 691 c0 -5 20 -19 45 -31 25 -12 45 -24 45 -27 0 -6 -48 1 -72
12 -16 6 -18 -1 -18 -74 l0 -81 110 0 110 0 0 84 0 85 -35 -15 c-19 -7 -45
-14 -57 -13 -23 0 -23 1 2 11 55 22 90 42 90 50 0 4 -49 8 -110 8 -60 0 -110
-4 -110 -9z"/>
<path d="M1097 693 c-4 -3 -7 -51 -7 -105 l0 -98 110 0 110 0 0 105 0 105
-103 0 c-57 0 -107 -3 -110 -7z"/>
<path d="M1340 594 l0 -106 81 4 c74 3 83 6 105 31 21 24 24 38 24 103 l0 74
-105 0 -105 0 0 -106z"/>
</g>
</svg>
